<svg xmlns="http://www.w3.org/2000/svg" viewBox="0 0 32 32">
  <defs>
    <linearGradient id="grad" x1="0%" y1="0%" x2="100%" y2="100%">
      <stop offset="0%" style="stop-color:#3b82f6"/>
      <stop offset="100%" style="stop-color:#6366f1"/>
    </linearGradient>
  </defs>
  <!-- PDF Document -->
  <path d="M6 4a2 2 0 0 1 2-2h10l8 8v18a2 2 0 0 1-2 2H8a2 2 0 0 1-2-2V4z" fill="#f4f4f5"/>
  <path d="M16 2v6a2 2 0 0 0 2 2h6" fill="none" stroke="#d4d4d8" stroke-width="1.5"/>
  <!-- Text lines -->
  <rect x="9" y="14" width="10" height="1.5" rx="0.75" fill="#a1a1aa"/>
  <rect x="9" y="18" width="8" height="1.5" rx="0.75" fill="#a1a1aa"/>
  <!-- Chat bubble -->
  <circle cx="24" cy="22" r="7" fill="url(#grad)"/>
  <path d="M21 21h6M21 24h4" stroke="white" stroke-width="1.5" stroke-linecap="round"/>
</svg>
